<svg id="signature" xmlns="http://www.w3.org/2000/svg" width="27.415" height="32" viewBox="0 0 27.415 32">
  <path id="Path_13" data-name="Path 13" d="M2676.361-1521.355c-3.331,1.95-6.511,1.95-7.495.081-.681-1.3-.757-1.3-1.211,0-.909,2.6.3,3.331,4.618,2.762,2.271-.244,4.088-.325,4.088-.081,0,.162-1.06,2.762-2.423,5.687-2.2,4.793-2.65,5.281-4.769,5.281a7.374,7.374,0,0,0-3.331.731c-1.514,1.056-.455,3.169,1.741,3.818l1.892.488-2.574,5.524c-1.438,3.087-2.347,5.768-1.968,6.012.909.65,1.363,0,3.937-6.093,2.043-4.712,2.65-5.524,4.618-5.768,3.1-.488,4.088.893,4.694,6.661.3,3.006.832,4.875,1.362,4.712.454-.162,1.817-3.25,3.028-6.824,2.2-6.418,2.2-6.5,5.981-7.88,2.044-.813,3.709-1.788,3.709-2.194,0-.487-1.362-.244-3.028.487-1.741.731-3.255,1.218-3.406.975-.151-.163.681-3.006,1.893-6.255,2.271-5.849,2.8-8.693,1.665-7.88-.3.162-1.817,3.574-3.179,7.393-2.8,7.393-3.861,8.531-8.176,8.531a6.49,6.49,0,0,1-3.482-1.219c-1.363-1.056-1.211-1.462,2.12-8.043C2681.281-1523.711,2681.281-1524.117,2676.361-1521.355Zm-6.056,16.167a.979.979,0,0,1-1.06.812,2.083,2.083,0,0,1-1.59-.812c-.227-.488.227-.812,1.06-.812C2669.624-1506,2670.3-1505.675,2670.3-1505.188Zm11.81,2.112c-.227.731-.681,2.193-.909,3.25-.53,2.275-1.514,2.519-2.044.488a19.576,19.576,0,0,0-.908-2.762c-.454-1.3,0-1.544,3.71-2.194C2682.266-1504.294,2682.342-1503.807,2682.115-1503.075Z" transform="translate(-2664.844 1522.85)" fill="#dddcdb"/>
</svg>
