<svg xmlns="http://www.w3.org/2000/svg" width="90.816" height="17.76" viewBox="0 0 90.816 17.76">
  <path id="Path_17" data-name="Path 17" d="M5.64.312A4.73,4.73,0,0,1,3.1-.372a4.627,4.627,0,0,1-1.7-1.848,5.445,5.445,0,0,1-.6-2.532A4.443,4.443,0,0,1,1.572-7.4,4.819,4.819,0,0,1,3.564-9.036a6.045,6.045,0,0,1,2.484-.54,4.652,4.652,0,0,1,2.556.7,4.606,4.606,0,0,1,1.668,1.836,5.327,5.327,0,0,1,.576,2.436A4.729,4.729,0,0,1,10.14-2.04,4.766,4.766,0,0,1,8.232-.3,5.623,5.623,0,0,1,5.64.312Zm.72-.48A1.788,1.788,0,0,0,7.98-1.1,5.37,5.37,0,0,0,8.544-3.84,8.081,8.081,0,0,0,8.1-6.648,4.181,4.181,0,0,0,6.9-8.472,2.53,2.53,0,0,0,5.256-9.1a1.8,1.8,0,0,0-1.632.888,5.013,5.013,0,0,0-.552,2.616,8.664,8.664,0,0,0,.42,2.8A4.558,4.558,0,0,0,4.668-.864,2.438,2.438,0,0,0,6.36-.168ZM21.936-1.3a.117.117,0,0,1,.12.108.127.127,0,0,1-.072.156L19.512.144A.476.476,0,0,1,19.3.192a.892.892,0,0,1-.684-.42,2.315,2.315,0,0,1-.42-1.116l-1.1.768A4.485,4.485,0,0,1,16.044,0,3.073,3.073,0,0,1,15,.168,2.161,2.161,0,0,1,13.5-.3a1.589,1.589,0,0,1-.516-1.236,1.57,1.57,0,0,1,.348-1.056,2.581,2.581,0,0,1,.888-.66q.54-.252,1.6-.636l2.328-.864v-1.44a5.782,5.782,0,0,0-.3-2.172.994.994,0,0,0-.948-.684,1.221,1.221,0,0,0-1.14.588,3.15,3.15,0,0,0-.42,1.308q-.144,1.224-1.224,1.224a1.1,1.1,0,0,1-.78-.24.794.794,0,0,1-.252-.6,1.738,1.738,0,0,1,.8-1.308,6.589,6.589,0,0,1,1.944-1.032,6.226,6.226,0,0,1,2-.4,2.154,2.154,0,0,1,1.644.648,2.737,2.737,0,0,1,.612,1.944v4.32a2.151,2.151,0,0,0,.24,1.128.772.772,0,0,0,.7.384,2.267,2.267,0,0,0,.864-.216Zm-3.792-.432V-4.344l-1.44.6a3.7,3.7,0,0,0-1.02.564,1.126,1.126,0,0,0-.4.924,1.205,1.205,0,0,0,.372.924,1.27,1.27,0,0,0,.9.348,1.782,1.782,0,0,0,.912-.288ZM34.32-.288q.072,0,.072.144T34.32,0q-.6,0-.936-.024L31.992-.048l-1.368.024q-.36.024-.96.024-.072,0-.072-.144t.072-.144a1.337,1.337,0,0,0,1.08-.336,2.29,2.29,0,0,0,.264-1.32v-3.6a3.233,3.233,0,0,0-.492-1.98,1.834,1.834,0,0,0-1.548-.636,3.117,3.117,0,0,0-1.272.288A4.386,4.386,0,0,0,26.52-7.1v5.16a2.29,2.29,0,0,0,.264,1.32,1.337,1.337,0,0,0,1.08.336q.072,0,.072.144T27.864,0q-.6,0-.936-.024L25.536-.048l-1.392.024Q23.808,0,23.208,0q-.072,0-.072-.144t.072-.144a1.337,1.337,0,0,0,1.08-.336,2.29,2.29,0,0,0,.264-1.32V-6.528a2.655,2.655,0,0,0-.18-1.128.611.611,0,0,0-.588-.36,3.63,3.63,0,0,0-1.2.36H22.56q-.1,0-.144-.12t.024-.144l3.144-1.536a1,1,0,0,1,.168-.048q.24,0,.492.54a3.58,3.58,0,0,1,.276,1.4,4.786,4.786,0,0,1,3.648-1.992,2.673,2.673,0,0,1,2.064.8,3.072,3.072,0,0,1,.744,2.172v4.632a2.29,2.29,0,0,0,.264,1.32A1.337,1.337,0,0,0,34.32-.288ZM41.04-.84A19.279,19.279,0,0,1,43.272-.7a2.832,2.832,0,0,1,1.5.672A2.17,2.17,0,0,1,45.408,1.7a4.169,4.169,0,0,1-.84,2.484,6.007,6.007,0,0,1-2.232,1.86,6.564,6.564,0,0,1-2.976.7A4.436,4.436,0,0,1,36.684,6a2.3,2.3,0,0,1-1.02-1.944q0-1.7,2.448-3.336-1.776-.336-1.776-1.7a2.4,2.4,0,0,1,.42-1.368A4.865,4.865,0,0,1,38.04-3.576a3.162,3.162,0,0,1-1.38-1.176,2.974,2.974,0,0,1-.492-1.632,2.481,2.481,0,0,1,.576-1.632,3.6,3.6,0,0,1,1.5-1.056,5.406,5.406,0,0,1,1.98-.36,4.077,4.077,0,0,1,2.544.768,5.758,5.758,0,0,1,1.272-.612,4.3,4.3,0,0,1,1.344-.2q.168,0,.168.624a3.06,3.06,0,0,1-.084.7q-.084.36-.18.288a5,5,0,0,0-1.728-.384,1.43,1.43,0,0,0-.312.024,2.625,2.625,0,0,1,.7,1.824,2.64,2.64,0,0,1-.576,1.656A3.781,3.781,0,0,1,41.856-3.6a4.931,4.931,0,0,1-1.992.408,4.535,4.535,0,0,1-1.44-.216,1.6,1.6,0,0,0-.528,1.2A1.036,1.036,0,0,0,38.6-1.1,8.913,8.913,0,0,0,41.04-.84ZM39.5-9q-1.3,0-1.3,1.944a4.719,4.719,0,0,0,.324,1.8,3.077,3.077,0,0,0,.84,1.224A1.65,1.65,0,0,0,40.44-3.6a1.244,1.244,0,0,0,1.032-.54,2.719,2.719,0,0,0,.408-1.644,4.019,4.019,0,0,0-.348-1.74,2.713,2.713,0,0,0-.888-1.1A1.977,1.977,0,0,0,39.5-9ZM40.656,6a3.018,3.018,0,0,0,2.2-.8,2.888,2.888,0,0,0,.828-2.172,2.042,2.042,0,0,0-.444-1.464A2.051,2.051,0,0,0,42.06.984a13.665,13.665,0,0,0-2.076-.12,11.306,11.306,0,0,1-1.3-.072,2.541,2.541,0,0,0-1.128,2.16A2.893,2.893,0,0,0,38.436,5.2,3.156,3.156,0,0,0,40.656,6ZM59.568-1.536q.072,0,.132.1t-.012.144a6.628,6.628,0,0,1-1.68,1.212,3.9,3.9,0,0,1-1.68.372A2.975,2.975,0,0,1,54.588-.2a1.859,1.859,0,0,1-.708-1.644V-7.272a1.582,1.582,0,0,0-.252-1.056,1.346,1.346,0,0,0-.972-.264q-.024,0-.06-.06a.252.252,0,0,1-.036-.132.252.252,0,0,1,.036-.132q.036-.06.06-.06a2.756,2.756,0,0,0,2.832-1.944.205.205,0,0,1,.2-.1q.156,0,.156.1v1.9q1.128-.024,3.192-.24.048,0,.108.18a1.246,1.246,0,0,1,.06.4,1.184,1.184,0,0,1-.084.432q-.084.216-.18.192a16.849,16.849,0,0,0-3.1-.384V-2.64a1.822,1.822,0,0,0,.468,1.38,1.825,1.825,0,0,0,1.308.444,3.02,3.02,0,0,0,1.9-.7ZM67.2-9.5a1.79,1.79,0,0,1,1.056.36,1.045,1.045,0,0,1,.5.864,1.031,1.031,0,0,1-.276.744,1,1,0,0,1-.756.288.932.932,0,0,1-.516-.132,2.157,2.157,0,0,1-.42-.372,2.426,2.426,0,0,0-.384-.324A.739.739,0,0,0,66-8.184a1.017,1.017,0,0,0-.564.2,7.071,7.071,0,0,0-.924.852v5.184A2.158,2.158,0,0,0,64.7-.924a1.065,1.065,0,0,0,.648.492A4.74,4.74,0,0,0,66.7-.288q.1,0,.1.144T66.7,0Q65.9,0,65.424-.024l-1.9-.024-1.392.024Q61.8,0,61.2,0q-.072,0-.072-.144T61.2-.288a1.337,1.337,0,0,0,1.08-.336,2.29,2.29,0,0,0,.264-1.32V-6.528a2.655,2.655,0,0,0-.18-1.128.611.611,0,0,0-.588-.36,3.63,3.63,0,0,0-1.2.36h-.024q-.1,0-.144-.12t.024-.144l3.144-1.536a1,1,0,0,1,.168-.048q.24,0,.48.516a3.761,3.761,0,0,1,.288,1.356A8.652,8.652,0,0,1,66.072-9.1,2.119,2.119,0,0,1,67.2-9.5ZM79.152-1.3a.117.117,0,0,1,.12.108.127.127,0,0,1-.072.156L76.728.144a.476.476,0,0,1-.216.048.891.891,0,0,1-.684-.42,2.315,2.315,0,0,1-.42-1.116l-1.1.768A4.485,4.485,0,0,1,73.26,0a3.073,3.073,0,0,1-1.044.168,2.161,2.161,0,0,1-1.5-.468A1.589,1.589,0,0,1,70.2-1.536a1.57,1.57,0,0,1,.348-1.056,2.581,2.581,0,0,1,.888-.66q.54-.252,1.6-.636l2.328-.864v-1.44a5.782,5.782,0,0,0-.3-2.172.994.994,0,0,0-.948-.684,1.221,1.221,0,0,0-1.14.588,3.15,3.15,0,0,0-.42,1.308q-.144,1.224-1.224,1.224a1.1,1.1,0,0,1-.78-.24.794.794,0,0,1-.252-.6,1.738,1.738,0,0,1,.8-1.308,6.589,6.589,0,0,1,1.944-1.032,6.226,6.226,0,0,1,2-.4,2.154,2.154,0,0,1,1.644.648A2.737,2.737,0,0,1,77.3-6.912v4.32a2.151,2.151,0,0,0,.24,1.128.772.772,0,0,0,.7.384A2.267,2.267,0,0,0,79.1-1.3ZM75.36-1.728V-4.344l-1.44.6a3.7,3.7,0,0,0-1.02.564,1.126,1.126,0,0,0-.4.924,1.205,1.205,0,0,0,.372.924,1.27,1.27,0,0,0,.9.348,1.782,1.782,0,0,0,.912-.288ZM91.536-.288q.072,0,.072.144T91.536,0q-.6,0-.936-.024L89.208-.048,87.84-.024Q87.48,0,86.88,0q-.072,0-.072-.144t.072-.144a1.337,1.337,0,0,0,1.08-.336,2.29,2.29,0,0,0,.264-1.32v-3.6a3.233,3.233,0,0,0-.492-1.98,1.834,1.834,0,0,0-1.548-.636,3.117,3.117,0,0,0-1.272.288,4.386,4.386,0,0,0-1.176.768v5.16A2.29,2.29,0,0,0,84-.624a1.337,1.337,0,0,0,1.08.336q.072,0,.072.144T85.08,0q-.6,0-.936-.024L82.752-.048,81.36-.024Q81.024,0,80.424,0q-.072,0-.072-.144t.072-.144A1.337,1.337,0,0,0,81.5-.624a2.29,2.29,0,0,0,.264-1.32V-6.528a2.655,2.655,0,0,0-.18-1.128A.611.611,0,0,0,81-8.016a3.63,3.63,0,0,0-1.2.36h-.024q-.1,0-.144-.12t.024-.144L82.8-9.456a1,1,0,0,1,.168-.048q.24,0,.492.54a3.58,3.58,0,0,1,.276,1.4,4.786,4.786,0,0,1,3.648-1.992,2.673,2.673,0,0,1,2.064.8,3.072,3.072,0,0,1,.744,2.172v4.632a2.29,2.29,0,0,0,.264,1.32A1.337,1.337,0,0,0,91.536-.288Z" transform="translate(-0.792 11.016)" fill="#dddcdb"/>
</svg>
